# xmcd
#
# Track frame offsets: 
#        150
#        22534
#        39646
#        55375
#        71828
#        82355
#        98897
#        112610
#        127859
#        143756
#        158038
#        176431
#        190964
#        208293
#        223661
#        239878
#        257400
#
# Disc length: 3657 seconds
#
# Revision: 1
# Processed by: cddbd v1.5.2PL0 Copyright (c) Steve Scherf et al.
# Submitted via: ExactAudioCopy v0.99pb4
#
DISCID=f20e4711
DTITLE=Various Artist - More Country Heat 2008
DYEAR=2008
DGENRE=Country
TTITLE0=Brad Paisley - Online
TTITLE1=Brooks and Dunn - Proud of the House We Built
TTITLE2=Kenny Chesney - Never Wanted Nothing More
TTITLE3=Montgomery Gentry - What Do Ya Think About That?
TTITLE4=Gord Bamford - Stayed Til Two
TTITLE5=Shane Yellowbird - I Remember the Music
TTITLE6=Terri Clark - Dirty Girl
TTITLE7=Doc Walker - What Do You See
TTITLE8=Sara Evans - As If
TTITLE9=Alex J. Robinson - Breakin' on the Love Thing
TTITLE10=Chuck Wicks - Stealing Cinderella
TTITLE11=Brad Johner - You Can't Beat an Original
TTITLE12=Craig Morgan - International Harvester
TTITLE13=Jason Aldean - Laughed Until We Cried
TTITLE14=Crystal Shawanda - You Can Let Go
TTITLE15=Aaron Lines - Somebody's Son
TTITLE16=Carrie Underwood - So Small
EXTD=YEAR: 2008
EXTT0=
EXTT1=
EXTT2=
EXTT3=
EXTT4=
EXTT5=
EXTT6=
EXTT7=
EXTT8=
EXTT9=
EXTT10=
EXTT11=
EXTT12=
EXTT13=
EXTT14=
EXTT15=
EXTT16=
PLAYORDER=
